<svg width="17" height="18" viewBox="0 0 17 18" fill="none" xmlns="http://www.w3.org/2000/svg">
<g clip-path="url(#clip0_1026_3288)">
<path d="M16.3774 6.92436L11.0047 1.55094C10.3397 0.887936 9.43902 0.515625 8.50001 0.515625C7.561 0.515625 6.6603 0.887936 5.99534 1.55094L0.622634 6.92436C0.424602 7.12112 0.267596 7.35524 0.160717 7.61313C0.0538385 7.87103 -0.000786534 8.14757 8.5563e-06 8.42673V15.3804C8.5563e-06 15.944 0.223892 16.4845 0.622407 16.883C1.02092 17.2816 1.56142 17.5054 2.12501 17.5054H14.875C15.4386 17.5054 15.9791 17.2816 16.3776 16.883C16.7761 16.4845 17 15.944 17 15.3804V8.42673C17.0008 8.14757 16.9462 7.87103 16.8393 7.61313C16.7324 7.35524 16.5754 7.12112 16.3774 6.92436ZM10.625 16.0888H6.37501V13.3022C6.37501 12.7386 6.59889 12.1981 6.99741 11.7996C7.39592 11.4011 7.93642 11.1772 8.50001 11.1772C9.06359 11.1772 9.6041 11.4011 10.0026 11.7996C10.4011 12.1981 10.625 12.7386 10.625 13.3022V16.0888ZM15.5833 15.3804C15.5833 15.5683 15.5087 15.7485 15.3759 15.8813C15.243 16.0141 15.0629 16.0888 14.875 16.0888H12.0417V13.3022C12.0417 12.3629 11.6685 11.462 11.0043 10.7979C10.3402 10.1337 9.43932 9.76053 8.50001 9.76053C7.5607 9.76053 6.65986 10.1337 5.99567 10.7979C5.33148 11.462 4.95834 12.3629 4.95834 13.3022V16.0888H2.12501C1.93715 16.0888 1.75698 16.0141 1.62414 15.8813C1.4913 15.7485 1.41668 15.5683 1.41668 15.3804V8.42673C1.41733 8.23901 1.49189 8.0591 1.62422 7.92594L6.99693 2.55465C7.39621 2.15723 7.93665 1.93411 8.50001 1.93411C9.06337 1.93411 9.60381 2.15723 10.0031 2.55465L15.3758 7.92807C15.5076 8.0607 15.5821 8.23975 15.5833 8.42673V15.3804Z" fill="#1273C1"/>
</g>
<defs>
<clipPath id="clip0_1026_3288">
<rect width="17" height="17" fill="white" transform="translate(0 0.5)"/>
</clipPath>
</defs>
</svg>
